<svg width="56" height="56" viewBox="0 0 56 56" fill="none" xmlns="http://www.w3.org/2000/svg">
<g clip-path="url(#clip0)">
<path d="M54.25 56H46.0833C45.1173 56 44.3333 55.216 44.3333 54.25V51.3333H36.1667V54.25C36.1667 55.216 35.3827 56 34.4167 56H21.5833C20.6173 56 19.8333 55.216 19.8333 54.25V51.3333H11.6667V54.25C11.6667 55.216 10.8827 56 9.91667 56H1.75C0.784 56 0 55.216 0 54.25V43.75C0 42.784 0.784 42 1.75 42H54.25C55.216 42 56 42.784 56 43.75V54.25C56 55.216 55.216 56 54.25 56Z" fill="#EC8B33"/>
<path d="M27.9974 30.332C26.7094 30.332 25.6641 29.2867 25.6641 27.9987V9.91536C25.6641 8.62736 26.7094 7.58203 27.9974 7.58203C29.2854 7.58203 30.3307 8.62736 30.3307 9.91536V27.9987C30.3307 29.2867 29.2854 30.332 27.9974 30.332Z" fill="#EC8B33"/>
<path d="M36.7473 19.8341C36.1757 19.8341 35.604 19.6265 35.156 19.2065L27.9973 12.5261L20.8387 19.2065C19.903 20.0885 18.4237 20.0371 17.5417 19.0921C16.662 18.1518 16.7133 16.6748 17.656 15.7951L26.406 7.62845C27.302 6.79312 28.6927 6.79312 29.5887 7.62845L38.3387 15.7951C39.2813 16.6748 39.3327 18.1518 38.453 19.0921C37.9933 19.5868 37.3703 19.8341 36.7473 19.8341Z" fill="#EC8B33"/>
</g>
<defs>
<clipPath id="clip0">
<rect width="56" height="56" fill="white"/>
</clipPath>
</defs>
</svg>
