<svg width="56" height="56" viewBox="0 0 56 56" fill="none" xmlns="http://www.w3.org/2000/svg">
<g clip-path="url(#clip0)">
<path d="M24.5011 27.998C23.2132 27.998 22.168 29.0433 22.168 30.3312C22.168 31.6191 23.2132 32.6644 24.5011 32.6644C25.7891 32.6644 26.8343 31.6191 26.8343 30.3312C26.8343 29.0433 25.7891 27.998 24.5011 27.998Z" fill="#EC8B33"/>
<path d="M31.5 30.3312C31.5 31.6191 32.5452 32.6644 33.8332 32.6644C35.1211 32.6644 36.1663 31.6191 36.1663 30.3312C36.1663 29.0433 35.1212 27.998 33.8333 27.998C32.5453 27.998 31.5 29.0433 31.5 30.3312Z" fill="#EC8B33"/>
<path d="M37.3349 13.9972H21.3314L20.9697 12.5483C20.839 12.028 20.37 11.6641 19.8357 11.6641H17.5026C16.8586 11.6641 16.3359 12.1867 16.3359 12.8307C16.3359 13.4747 16.8586 13.9972 17.5026 13.9972H18.9235L21.7606 25.3436C22.1527 26.9045 23.5502 27.9965 25.1579 27.9965H33.8351H35.0017C35.6457 27.9965 36.1684 27.4738 36.1684 26.8298C36.1684 26.1859 35.6457 25.6632 35.0017 25.6632H25.1579C24.6212 25.6632 24.1546 25.2992 24.0262 24.7789L23.6645 23.33H34.1943C35.9092 23.33 37.3604 22.1004 37.6451 20.4042L38.485 15.3552C38.541 15.0169 38.4453 14.6715 38.226 14.4102C38.0022 14.1465 37.6755 13.9972 37.3349 13.9972Z" fill="#EC8B33"/>
<path d="M40.8682 34.8954C45.1239 31.2556 47.8328 25.8589 47.8328 19.8322C47.8328 8.89651 38.9363 0 28.0005 0C17.0647 0 8.16826 8.89651 8.16826 19.8322C8.16826 25.8566 10.8794 31.2533 15.1329 34.8954L8.23355 54.443C8.07726 54.8887 8.20555 55.3903 8.56253 55.7052C8.78182 55.8965 9.05721 55.9969 9.33479 55.9969C9.51207 55.9969 9.68947 55.9549 9.85746 55.8732L18.523 51.5405L23.7727 55.7425C24.0854 55.9945 24.5077 56.0598 24.8903 55.9315C25.2706 55.7962 25.553 55.4789 25.6416 55.0846L27.2538 47.8283L30.4293 55.2876C30.574 55.6258 30.8656 55.8732 31.218 55.9618C31.5657 56.0575 31.9483 55.9688 32.2329 55.7425L37.4827 51.5405L46.1482 55.8732C46.3115 55.9549 46.4889 55.9969 46.6662 55.9969C46.9438 55.9969 47.2191 55.8966 47.4384 55.7052C47.7931 55.3903 47.9237 54.8886 47.7674 54.443L40.8682 34.8954ZM33.6632 36.3723L30.0491 37.2006C29.3771 37.2799 28.6958 37.3313 28.0005 37.3313C18.3503 37.3313 10.5014 29.4824 10.5014 19.8322C10.5014 10.182 18.3503 2.33317 28.0005 2.33317C37.6507 2.33317 45.4995 10.182 45.4995 19.8322C45.4995 27.4992 40.5392 34.0134 33.6632 36.3723Z" fill="#EC8B33"/>
</g>
<defs>
<clipPath id="clip0">
<rect width="56" height="56" fill="white"/>
</clipPath>
</defs>
</svg>
