<svg width="56" height="56" viewBox="0 0 56 56" fill="none" xmlns="http://www.w3.org/2000/svg">
<g clip-path="url(#clip0)">
<path d="M51.3334 15.7943V1.75C51.3334 0.784 50.5494 0 49.5834 0H43.7501C42.7841 0 42.0001 0.784 42.0001 1.75V7.21C37.8771 4.865 33.1031 3.5 28.0001 3.5C12.5417 3.5 -0.0302786 15.8293 5.47753e-05 30.9703C0.00238811 31.9153 0.807388 32.6667 1.75005 32.6667H4.66672V53.6667C4.66672 54.9547 5.71205 56 7.00005 56H11.6667V28H44.3334V56H49.0001C50.2881 56 51.3334 54.9547 51.3334 53.6667V32.6667H54.2501C55.1927 32.6667 55.9977 31.913 56.0001 30.9703C56.0117 25.3633 54.2851 20.146 51.3334 15.7943Z" fill="#EC8B33"/>
<path d="M15.1641 50.168H40.8307V56.0013H15.1641V50.168Z" fill="#EC8B33"/>
<path d="M15.1641 40.832H40.8307V46.6654H15.1641V40.832Z" fill="#EC8B33"/>
<path d="M15.1641 31.5H40.8307V37.3333H15.1641V31.5Z" fill="#EC8B33"/>
</g>
<defs>
<clipPath id="clip0">
<rect width="56" height="56" fill="white"/>
</clipPath>
</defs>
</svg>
