<svg width="20" height="20" viewBox="0 0 20 20" fill="none" xmlns="http://www.w3.org/2000/svg">
<g clip-path="url(#clip0)">
<path d="M17.7083 20H2.29167C1.0275 20 0 18.9725 0 17.7083V2.29167C0 1.0275 1.0275 0 2.29167 0H17.7083C18.9725 0 20 1.0275 20 2.29167V17.7083C20 18.9725 18.9725 20 17.7083 20ZM2.29167 1.25C1.7175 1.25 1.25 1.7175 1.25 2.29167V17.7083C1.25 18.2825 1.7175 18.75 2.29167 18.75H17.7083C18.2825 18.75 18.75 18.2825 18.75 17.7083V2.29167C18.75 1.7175 18.2825 1.25 17.7083 1.25H2.29167Z" fill="#CA782E"/>
<path d="M10 20C9.655 20 9.375 19.72 9.375 19.375V0.625C9.375 0.28 9.655 0 10 0C10.345 0 10.625 0.28 10.625 0.625V19.375C10.625 19.72 10.345 20 10 20Z" fill="#CA782E"/>
<path d="M19.375 10.625H0.625C0.28 10.625 0 10.345 0 10C0 9.655 0.28 9.375 0.625 9.375H19.375C19.72 9.375 20 9.655 20 10C20 10.345 19.72 10.625 19.375 10.625Z" fill="#CA782E"/>
<path d="M5 7.49937C4.655 7.49937 4.375 7.21937 4.375 6.87437V3.9577C4.375 3.6127 4.655 3.3327 5 3.3327C5.345 3.3327 5.625 3.6127 5.625 3.9577V6.87437C5.625 7.21937 5.345 7.49937 5 7.49937Z" fill="#CA782E"/>
<path d="M6.45854 6.0423H3.54187C3.19687 6.0423 2.91687 5.7623 2.91687 5.4173C2.91687 5.0723 3.19687 4.7923 3.54187 4.7923H6.45854C6.80354 4.7923 7.08354 5.0723 7.08354 5.4173C7.08354 5.7623 6.80354 6.0423 6.45854 6.0423Z" fill="#CA782E"/>
<path d="M3.95817 16.6675C3.79817 16.6675 3.63817 16.6067 3.5165 16.4842C3.27233 16.24 3.27233 15.8442 3.5165 15.6L5.59983 13.5167C5.844 13.2725 6.23983 13.2725 6.484 13.5167C6.72817 13.7609 6.72817 14.1567 6.484 14.4009L4.40067 16.4842C4.27817 16.6067 4.11817 16.6675 3.95817 16.6675Z" fill="#CA782E"/>
<path d="M6.0415 16.6675C5.8815 16.6675 5.7215 16.6067 5.59983 16.4842L3.5165 14.4009C3.27233 14.1567 3.27233 13.7609 3.5165 13.5167C3.76067 13.2725 4.1565 13.2725 4.40067 13.5167L6.484 15.6C6.72817 15.8442 6.72817 16.24 6.484 16.4842C6.3615 16.6067 6.2015 16.6675 6.0415 16.6675Z" fill="#CA782E"/>
<path d="M16.875 5.8327H13.125C12.78 5.8327 12.5 5.5527 12.5 5.2077C12.5 4.8627 12.78 4.5827 13.125 4.5827H16.875C17.22 4.5827 17.5 4.8627 17.5 5.2077C17.5 5.5527 17.22 5.8327 16.875 5.8327Z" fill="#CA782E"/>
<path d="M16.875 16.6673H13.125C12.78 16.6673 12.5 16.3873 12.5 16.0423C12.5 15.6973 12.78 15.4173 13.125 15.4173H16.875C17.22 15.4173 17.5 15.6973 17.5 16.0423C17.5 16.3873 17.22 16.6673 16.875 16.6673Z" fill="#CA782E"/>
<path d="M16.875 14.1673H13.125C12.78 14.1673 12.5 13.8873 12.5 13.5423C12.5 13.1973 12.78 12.9173 13.125 12.9173H16.875C17.22 12.9173 17.5 13.1973 17.5 13.5423C17.5 13.8873 17.22 14.1673 16.875 14.1673Z" fill="#CA782E"/>
</g>
<defs>
<clipPath id="clip0">
<rect width="20" height="20" fill="white"/>
</clipPath>
</defs>
</svg>
