<svg width="20" height="20" viewBox="0 0 20 20" fill="none" xmlns="http://www.w3.org/2000/svg">
<path d="M0.285156 1.66849C-0.0898438 1.29349 -0.0898438 0.669362 0.285156 0.28125C0.673268 -0.09375 1.28428 -0.09375 1.67239 0.28125L9.9967 8.61954L18.335 0.28125C18.71 -0.09375 19.3341 -0.09375 19.7082 0.28125C20.0963 0.669362 20.0963 1.29436 19.7082 1.66849L11.3839 9.99366L19.7082 18.332C20.0963 18.707 20.0963 19.3311 19.7082 19.7192C19.3332 20.0942 18.7091 20.0942 18.335 19.7192L9.9967 11.3809L1.67239 19.7192C1.28428 20.0942 0.673268 20.0942 0.285156 19.7192C-0.0898438 19.3311 -0.0898438 18.7061 0.285156 18.332L8.60946 9.99366L0.285156 1.66849Z" fill="#010101"/>
</svg>
