<svg width="133" height="60" viewBox="0 0 133 60" fill="none" xmlns="http://www.w3.org/2000/svg">
<path d="M90.7188 30.1406C90.7188 32.3802 90.3229 34.3438 89.5312 36.0312C88.7396 37.7188 87.6042 39.0208 86.125 39.9375C84.6562 40.8542 82.9688 41.3125 81.0625 41.3125C79.1771 41.3125 77.4948 40.8594 76.0156 39.9531C74.5365 39.0469 73.3906 37.7552 72.5781 36.0781C71.7656 34.3906 71.3542 32.4531 71.3438 30.2656V29.1406C71.3438 26.901 71.7448 24.9323 72.5469 23.2344C73.3594 21.526 74.5 20.2188 75.9688 19.3125C77.4479 18.3958 79.1354 17.9375 81.0312 17.9375C82.9271 17.9375 84.6094 18.3958 86.0781 19.3125C87.5573 20.2188 88.6979 21.526 89.5 23.2344C90.3125 24.9323 90.7188 26.8958 90.7188 29.125V30.1406ZM85.9688 29.1094C85.9688 26.724 85.5417 24.9115 84.6875 23.6719C83.8333 22.4323 82.6146 21.8125 81.0312 21.8125C79.4583 21.8125 78.2448 22.4271 77.3906 23.6562C76.5365 24.875 76.1042 26.6667 76.0938 29.0312V30.1406C76.0938 32.4635 76.5208 34.2656 77.375 35.5469C78.2292 36.8281 79.4583 37.4688 81.0625 37.4688C82.6354 37.4688 83.8438 36.8542 84.6875 35.625C85.5312 34.3854 85.9583 32.5833 85.9688 30.2188V29.1094ZM105.922 35.0312C105.922 34.1458 105.609 33.4688 104.984 33C104.359 32.5208 103.234 32.0208 101.609 31.5C99.9844 30.9688 98.6979 30.4479 97.75 29.9375C95.1667 28.5417 93.875 26.6615 93.875 24.2969C93.875 23.0677 94.2188 21.974 94.9062 21.0156C95.6042 20.0469 96.599 19.2917 97.8906 18.75C99.1927 18.2083 100.651 17.9375 102.266 17.9375C103.891 17.9375 105.339 18.2344 106.609 18.8281C107.88 19.4115 108.865 20.2396 109.562 21.3125C110.271 22.3854 110.625 23.6042 110.625 24.9688H105.938C105.938 23.9271 105.609 23.1198 104.953 22.5469C104.297 21.9635 103.375 21.6719 102.188 21.6719C101.042 21.6719 100.151 21.9167 99.5156 22.4062C98.8802 22.8854 98.5625 23.5208 98.5625 24.3125C98.5625 25.0521 98.9323 25.6719 99.6719 26.1719C100.422 26.6719 101.521 27.1406 102.969 27.5781C105.635 28.3802 107.578 29.375 108.797 30.5625C110.016 31.75 110.625 33.2292 110.625 35C110.625 36.9688 109.88 38.5156 108.391 39.6406C106.901 40.7552 104.896 41.3125 102.375 41.3125C100.625 41.3125 99.0312 40.9948 97.5938 40.3594C96.1562 39.7135 95.0573 38.8333 94.2969 37.7188C93.5469 36.6042 93.1719 35.3125 93.1719 33.8438H97.875C97.875 36.3542 99.375 37.6094 102.375 37.6094C103.49 37.6094 104.359 37.3854 104.984 36.9375C105.609 36.4792 105.922 35.8438 105.922 35.0312ZM113.812 41V18.25H121.781C124.542 18.25 126.635 18.7812 128.062 19.8438C129.49 20.8958 130.203 22.4427 130.203 24.4844C130.203 25.599 129.917 26.5833 129.344 27.4375C128.771 28.2812 127.974 28.901 126.953 29.2969C128.12 29.5885 129.036 30.1771 129.703 31.0625C130.38 31.9479 130.719 33.0312 130.719 34.3125C130.719 36.5 130.021 38.1562 128.625 39.2812C127.229 40.4062 125.24 40.9792 122.656 41H113.812ZM118.5 31.0938V37.2344H122.516C123.62 37.2344 124.479 36.974 125.094 36.4531C125.719 35.9219 126.031 35.1927 126.031 34.2656C126.031 32.1823 124.953 31.125 122.797 31.0938H118.5ZM118.5 27.7812H121.969C124.333 27.7396 125.516 26.7969 125.516 24.9531C125.516 23.9219 125.214 23.1823 124.609 22.7344C124.016 22.276 123.073 22.0469 121.781 22.0469H118.5V27.7812Z" fill="#EC8B33"/>
<circle cx="30" cy="30" r="30" fill="#EC8B33"/>
<path fill-rule="evenodd" clip-rule="evenodd" d="M12 18.9998L29.9997 10L47.9994 18.9998V31.6L38.9995 27.1L29.9997 31.6V38.7998L38.9995 34.2999L47.9994 38.7998V45.9994H29.9997V38.8005L20.9998 34.3005L12 38.8005V18.9998ZM29.9978 45.9994H29.9997V46.0004L29.9978 45.9994ZM12.0019 45.9994L20.9998 41.5004L29.9978 45.9994H12.0019ZM12.0019 45.9994L12 46.0004V45.9994H12.0019Z" fill="white"/>
</svg>
