<svg width="221" height="70" viewBox="0 0 221 70" fill="none" xmlns="http://www.w3.org/2000/svg">
<path d="M103.719 35.1406C103.719 37.3802 103.323 39.3438 102.531 41.0312C101.74 42.7188 100.604 44.0208 99.125 44.9375C97.6562 45.8542 95.9688 46.3125 94.0625 46.3125C92.1771 46.3125 90.4948 45.8594 89.0156 44.9531C87.5365 44.0469 86.3906 42.7552 85.5781 41.0781C84.7656 39.3906 84.3542 37.4531 84.3438 35.2656V34.1406C84.3438 31.901 84.7448 29.9323 85.5469 28.2344C86.3594 26.526 87.5 25.2188 88.9688 24.3125C90.4479 23.3958 92.1354 22.9375 94.0312 22.9375C95.9271 22.9375 97.6094 23.3958 99.0781 24.3125C100.557 25.2188 101.698 26.526 102.5 28.2344C103.312 29.9323 103.719 31.8958 103.719 34.125V35.1406ZM98.9688 34.1094C98.9688 31.724 98.5417 29.9115 97.6875 28.6719C96.8333 27.4323 95.6146 26.8125 94.0312 26.8125C92.4583 26.8125 91.2448 27.4271 90.3906 28.6562C89.5365 29.875 89.1042 31.6667 89.0938 34.0312V35.1406C89.0938 37.4635 89.5208 39.2656 90.375 40.5469C91.2292 41.8281 92.4583 42.4688 94.0625 42.4688C95.6354 42.4688 96.8438 41.8542 97.6875 40.625C98.5312 39.3854 98.9583 37.5833 98.9688 35.2188V34.1094ZM115.984 41.3281C115.984 40.776 115.708 40.3438 115.156 40.0312C114.615 39.7083 113.74 39.4219 112.531 39.1719C108.51 38.3281 106.5 36.6198 106.5 34.0469C106.5 32.5469 107.12 31.2969 108.359 30.2969C109.609 29.2865 111.24 28.7812 113.25 28.7812C115.396 28.7812 117.109 29.2865 118.391 30.2969C119.682 31.3073 120.328 32.6198 120.328 34.2344H115.812C115.812 33.5885 115.604 33.0573 115.188 32.6406C114.771 32.2135 114.12 32 113.234 32C112.474 32 111.885 32.1719 111.469 32.5156C111.052 32.8594 110.844 33.2969 110.844 33.8281C110.844 34.3281 111.078 34.7344 111.547 35.0469C112.026 35.349 112.828 35.6146 113.953 35.8438C115.078 36.0625 116.026 36.3125 116.797 36.5938C119.182 37.4688 120.375 38.9844 120.375 41.1406C120.375 42.6823 119.714 43.9323 118.391 44.8906C117.068 45.8385 115.359 46.3125 113.266 46.3125C111.849 46.3125 110.589 46.0625 109.484 45.5625C108.391 45.0521 107.531 44.3594 106.906 43.4844C106.281 42.599 105.969 41.6458 105.969 40.625H110.25C110.292 41.4271 110.589 42.0417 111.141 42.4688C111.693 42.8958 112.432 43.1094 113.359 43.1094C114.224 43.1094 114.875 42.9479 115.312 42.625C115.76 42.2917 115.984 41.8594 115.984 41.3281ZM138.531 37.7031C138.531 40.4115 137.953 42.526 136.797 44.0469C135.641 45.5573 134.026 46.3125 131.953 46.3125C130.12 46.3125 128.656 45.6094 127.562 44.2031L127.359 46H123.297V22H127.812V30.6094C128.854 29.3906 130.224 28.7812 131.922 28.7812C133.984 28.7812 135.599 29.5417 136.766 31.0625C137.943 32.5729 138.531 34.7031 138.531 37.4531V37.7031ZM134.016 37.375C134.016 35.6667 133.745 34.4219 133.203 33.6406C132.661 32.849 131.854 32.4531 130.781 32.4531C129.344 32.4531 128.354 33.0417 127.812 34.2188V40.8906C128.365 42.0781 129.365 42.6719 130.812 42.6719C132.271 42.6719 133.229 41.9531 133.688 40.5156C133.906 39.8281 134.016 38.7812 134.016 37.375ZM153.422 40.0312C153.422 39.1458 153.109 38.4688 152.484 38C151.859 37.5208 150.734 37.0208 149.109 36.5C147.484 35.9688 146.198 35.4479 145.25 34.9375C142.667 33.5417 141.375 31.6615 141.375 29.2969C141.375 28.0677 141.719 26.974 142.406 26.0156C143.104 25.0469 144.099 24.2917 145.391 23.75C146.693 23.2083 148.151 22.9375 149.766 22.9375C151.391 22.9375 152.839 23.2344 154.109 23.8281C155.38 24.4115 156.365 25.2396 157.062 26.3125C157.771 27.3854 158.125 28.6042 158.125 29.9688H153.438C153.438 28.9271 153.109 28.1198 152.453 27.5469C151.797 26.9635 150.875 26.6719 149.688 26.6719C148.542 26.6719 147.651 26.9167 147.016 27.4062C146.38 27.8854 146.062 28.5208 146.062 29.3125C146.062 30.0521 146.432 30.6719 147.172 31.1719C147.922 31.6719 149.021 32.1406 150.469 32.5781C153.135 33.3802 155.078 34.375 156.297 35.5625C157.516 36.75 158.125 38.2292 158.125 40C158.125 41.9688 157.38 43.5156 155.891 44.6406C154.401 45.7552 152.396 46.3125 149.875 46.3125C148.125 46.3125 146.531 45.9948 145.094 45.3594C143.656 44.7135 142.557 43.8333 141.797 42.7188C141.047 41.6042 140.672 40.3125 140.672 38.8438H145.375C145.375 41.3542 146.875 42.6094 149.875 42.6094C150.99 42.6094 151.859 42.3854 152.484 41.9375C153.109 41.4792 153.422 40.8438 153.422 40.0312ZM167.156 39.2188L165.531 40.8438V46H161.016V22H165.531V35.2969L166.406 34.1719L170.734 29.0938H176.156L170.047 36.1406L176.688 46H171.5L167.156 39.2188ZM182.875 46H178.344V22H182.875V46ZM196.406 46C196.198 45.5938 196.047 45.0885 195.953 44.4844C194.859 45.7031 193.438 46.3125 191.688 46.3125C190.031 46.3125 188.656 45.8333 187.562 44.875C186.479 43.9167 185.938 42.7083 185.938 41.25C185.938 39.4583 186.599 38.0833 187.922 37.125C189.255 36.1667 191.177 35.6823 193.688 35.6719H195.766V34.7031C195.766 33.9219 195.562 33.2969 195.156 32.8281C194.76 32.3594 194.13 32.125 193.266 32.125C192.505 32.125 191.906 32.3073 191.469 32.6719C191.042 33.0365 190.828 33.5365 190.828 34.1719H186.312C186.312 33.1927 186.615 32.2865 187.219 31.4531C187.823 30.6198 188.677 29.9688 189.781 29.5C190.885 29.0208 192.125 28.7812 193.5 28.7812C195.583 28.7812 197.234 29.3073 198.453 30.3594C199.682 31.401 200.297 32.8698 200.297 34.7656V42.0938C200.307 43.6979 200.531 44.9115 200.969 45.7344V46H196.406ZM192.672 42.8594C193.339 42.8594 193.953 42.7135 194.516 42.4219C195.078 42.1198 195.495 41.7188 195.766 41.2188V38.3125H194.078C191.818 38.3125 190.615 39.0938 190.469 40.6562L190.453 40.9219C190.453 41.4844 190.651 41.9479 191.047 42.3125C191.443 42.6771 191.984 42.8594 192.672 42.8594ZM203.062 37.4219C203.062 34.7865 203.651 32.6875 204.828 31.125C206.016 29.5625 207.635 28.7812 209.688 28.7812C211.333 28.7812 212.693 29.3958 213.766 30.625V22H218.297V46H214.219L214 44.2031C212.875 45.6094 211.427 46.3125 209.656 46.3125C207.667 46.3125 206.068 45.5312 204.859 43.9688C203.661 42.3958 203.062 40.2135 203.062 37.4219ZM207.578 37.75C207.578 39.3333 207.854 40.5469 208.406 41.3906C208.958 42.2344 209.76 42.6562 210.812 42.6562C212.208 42.6562 213.193 42.0677 213.766 40.8906V34.2188C213.203 33.0417 212.229 32.4531 210.844 32.4531C208.667 32.4531 207.578 34.2188 207.578 37.75Z" fill="#EC8B33"/>
<path d="M30.1881 64.9891L-8.90109e-05 47.56L17.3936 37.4768L47.5818 54.9059L30.1881 64.9891Z" fill="#F2AE71"/>
<path d="M64.9648 30.0657L64.9648 64.924L47.5357 54.9022L47.5357 20.0439L64.9648 30.0657Z" fill="#EC8B33"/>
<path d="M17.4369 17.4295L47.6251 0.000396729L47.6606 20.1054L17.4724 37.5345L17.4369 17.4295Z" fill="#CA782E"/>
</svg>
