<svg width="148" height="73" viewBox="0 0 148 73" fill="none" xmlns="http://www.w3.org/2000/svg">
<path d="M105.984 25.0938C105.984 27.3125 105.573 29.276 104.75 30.9844C103.927 32.6927 102.755 34.0104 101.234 34.9375C99.724 35.8542 98 36.3125 96.0625 36.3125C94.125 36.3125 92.4062 35.8698 90.9062 34.9844C89.4062 34.0885 88.2344 32.8125 87.3906 31.1562C86.5573 29.5 86.1198 27.599 86.0781 25.4531V24.1719C86.0781 21.9427 86.4844 19.9792 87.2969 18.2812C88.1198 16.5729 89.2917 15.2552 90.8125 14.3281C92.3438 13.401 94.0833 12.9375 96.0312 12.9375C97.9583 12.9375 99.6771 13.3958 101.188 14.3125C102.698 15.2292 103.87 16.5365 104.703 18.2344C105.547 19.9219 105.974 21.8594 105.984 24.0469V25.0938ZM100.406 24.1406C100.406 21.8802 100.026 20.1667 99.2656 19C98.5156 17.8229 97.4375 17.2344 96.0312 17.2344C93.2812 17.2344 91.8281 19.2969 91.6719 23.4219L91.6562 25.0938C91.6562 27.3229 92.026 29.0365 92.7656 30.2344C93.5052 31.4323 94.6042 32.0312 96.0625 32.0312C97.4479 32.0312 98.5156 31.4427 99.2656 30.2656C100.016 29.0885 100.396 27.3958 100.406 25.1875V24.1406ZM120.547 29.9531C120.547 29.151 120.26 28.526 119.688 28.0781C119.125 27.6302 118.13 27.1667 116.703 26.6875C115.276 26.2083 114.109 25.7448 113.203 25.2969C110.255 23.849 108.781 21.8594 108.781 19.3281C108.781 18.0677 109.146 16.9583 109.875 16C110.615 15.0312 111.656 14.2812 113 13.75C114.344 13.2083 115.854 12.9375 117.531 12.9375C119.167 12.9375 120.63 13.2292 121.922 13.8125C123.224 14.3958 124.234 15.2292 124.953 16.3125C125.672 17.3854 126.031 18.6146 126.031 20H120.562C120.562 19.0729 120.276 18.3542 119.703 17.8438C119.141 17.3333 118.375 17.0781 117.406 17.0781C116.427 17.0781 115.651 17.2969 115.078 17.7344C114.516 18.1615 114.234 18.7083 114.234 19.375C114.234 19.9583 114.547 20.4896 115.172 20.9688C115.797 21.4375 116.896 21.9271 118.469 22.4375C120.042 22.9375 121.333 23.4792 122.344 24.0625C124.802 25.4792 126.031 27.4323 126.031 29.9219C126.031 31.9115 125.281 33.474 123.781 34.6094C122.281 35.7448 120.224 36.3125 117.609 36.3125C115.766 36.3125 114.094 35.9844 112.594 35.3281C111.104 34.6615 109.979 33.7552 109.219 32.6094C108.469 31.4531 108.094 30.125 108.094 28.625H113.594C113.594 29.8438 113.906 30.7448 114.531 31.3281C115.167 31.901 116.193 32.1875 117.609 32.1875C118.516 32.1875 119.229 31.9948 119.75 31.6094C120.281 31.2135 120.547 30.6615 120.547 29.9531ZM128.844 36V13.25H137.016C139.943 13.25 142.167 13.7865 143.688 14.8594C145.219 15.9323 145.984 17.4896 145.984 19.5312C145.984 20.7083 145.714 21.7135 145.172 22.5469C144.63 23.3802 143.833 23.9948 142.781 24.3906C143.969 24.7031 144.88 25.2865 145.516 26.1406C146.151 26.9948 146.469 28.0365 146.469 29.2656C146.469 31.4948 145.76 33.1719 144.344 34.2969C142.938 35.4115 140.849 35.9792 138.078 36H128.844ZM134.328 26.3281V31.7812H137.922C138.911 31.7812 139.672 31.5573 140.203 31.1094C140.734 30.651 141 30.0104 141 29.1875C141 27.2917 140.057 26.3385 138.172 26.3281H134.328ZM134.328 22.7344H137.188C138.385 22.724 139.24 22.5052 139.75 22.0781C140.26 21.651 140.516 21.0208 140.516 20.1875C140.516 19.2292 140.24 18.5417 139.688 18.125C139.135 17.6979 138.245 17.4844 137.016 17.4844H134.328V22.7344Z" fill="#EC8B33"/>
<path d="M97.594 50.427C97.458 51.957 96.9253 53.1527 95.996 54.014C95.078 54.864 93.8653 55.289 92.358 55.289C90.6353 55.289 89.2697 54.7223 88.261 53.589C87.2523 52.4443 86.748 50.903 86.748 48.965C86.748 47.1517 87.2523 45.6443 88.261 44.443C89.281 43.2303 90.6863 42.624 92.477 42.624C93.7577 42.624 94.8853 42.9697 95.86 43.661C96.8347 44.3523 97.3787 45.31 97.492 46.534H95.894C95.7127 45.7407 95.316 45.123 94.704 44.681C94.092 44.2277 93.3383 44.001 92.443 44.001C91.0943 44.001 90.0743 44.477 89.383 45.429C88.703 46.381 88.363 47.554 88.363 48.948C88.363 50.4893 88.7257 51.702 89.451 52.586C90.1763 53.47 91.168 53.912 92.426 53.912C93.4573 53.912 94.279 53.6173 94.891 53.028C95.503 52.4273 95.8713 51.5603 95.996 50.427H97.594ZM109.438 42.896L104.338 47.758L109.642 55H107.602L103.216 48.846L101.21 50.75V55H99.6116V42.896H101.21V48.897L107.347 42.896H109.438ZM119.875 42.896V55H118.277V44.29H113.806L113.568 51.107C113.523 52.3763 113.262 53.385 112.786 54.133C112.322 54.881 111.647 55.255 110.763 55.255C110.401 55.255 110.015 55.1757 109.607 55.017V53.657C109.789 53.7703 110.078 53.827 110.474 53.827C110.803 53.827 111.064 53.7533 111.256 53.606C111.46 53.4473 111.636 53.096 111.783 52.552C111.942 52.008 112.033 51.2487 112.055 50.274L112.276 42.896H119.875ZM127.671 42.896L132.397 55H130.612L129.269 51.294H124.186L122.809 55H121.109L125.869 42.896H127.671ZM128.793 50.019L126.736 44.426L124.645 50.019H128.793ZM144.271 58.009H142.724V55H133.969V58.009H132.422V53.606H133.612C134.076 52.7787 134.456 51.5943 134.751 50.053C135.045 48.5003 135.193 46.8967 135.193 45.242V42.896H142.928V53.606H144.271V58.009ZM141.33 53.606V44.29H136.757V45.939C136.757 47.401 136.621 48.8517 136.349 50.291C136.088 51.719 135.765 52.824 135.38 53.606H141.33Z" fill="#EC8B33"/>
<path d="M32.119 67.0563L0.970629 49.0727L18.9176 38.6688L50.066 56.6524L32.119 67.0563Z" fill="#F2AE71"/>
<path d="M68 31.0212L68 66.9883L50.0165 56.6478L50.0165 20.6807L68 31.0212Z" fill="#EC8B33"/>
<path d="M18.9591 17.984L50.1075 0.000477999L50.1441 20.745L18.9957 38.7285L18.9591 17.984Z" fill="#CA782E"/>
</svg>
