<svg width="148" height="73" viewBox="0 0 148 73" fill="none" xmlns="http://www.w3.org/2000/svg">
<path d="M105.016 37.0938C105.016 39.3125 104.604 41.276 103.781 42.9844C102.958 44.6927 101.786 46.0104 100.266 46.9375C98.7552 47.8542 97.0312 48.3125 95.0938 48.3125C93.1562 48.3125 91.4375 47.8698 89.9375 46.9844C88.4375 46.0885 87.2656 44.8125 86.4219 43.1562C85.5885 41.5 85.151 39.599 85.1094 37.4531V36.1719C85.1094 33.9427 85.5156 31.9792 86.3281 30.2812C87.151 28.5729 88.3229 27.2552 89.8438 26.3281C91.375 25.401 93.1146 24.9375 95.0625 24.9375C96.9896 24.9375 98.7083 25.3958 100.219 26.3125C101.729 27.2292 102.901 28.5365 103.734 30.2344C104.578 31.9219 105.005 33.8594 105.016 36.0469V37.0938ZM99.4375 36.1406C99.4375 33.8802 99.0573 32.1667 98.2969 31C97.5469 29.8229 96.4688 29.2344 95.0625 29.2344C92.3125 29.2344 90.8594 31.2969 90.7031 35.4219L90.6875 37.0938C90.6875 39.3229 91.0573 41.0365 91.7969 42.2344C92.5365 43.4323 93.6354 44.0312 95.0938 44.0312C96.4792 44.0312 97.5469 43.4427 98.2969 42.2656C99.0469 41.0885 99.4271 39.3958 99.4375 37.1875V36.1406ZM119.578 41.9531C119.578 41.151 119.292 40.526 118.719 40.0781C118.156 39.6302 117.161 39.1667 115.734 38.6875C114.307 38.2083 113.141 37.7448 112.234 37.2969C109.286 35.849 107.812 33.8594 107.812 31.3281C107.812 30.0677 108.177 28.9583 108.906 28C109.646 27.0312 110.688 26.2812 112.031 25.75C113.375 25.2083 114.885 24.9375 116.562 24.9375C118.198 24.9375 119.661 25.2292 120.953 25.8125C122.255 26.3958 123.266 27.2292 123.984 28.3125C124.703 29.3854 125.062 30.6146 125.062 32H119.594C119.594 31.0729 119.307 30.3542 118.734 29.8438C118.172 29.3333 117.406 29.0781 116.438 29.0781C115.458 29.0781 114.682 29.2969 114.109 29.7344C113.547 30.1615 113.266 30.7083 113.266 31.375C113.266 31.9583 113.578 32.4896 114.203 32.9688C114.828 33.4375 115.927 33.9271 117.5 34.4375C119.073 34.9375 120.365 35.4792 121.375 36.0625C123.833 37.4792 125.062 39.4323 125.062 41.9219C125.062 43.9115 124.312 45.474 122.812 46.6094C121.312 47.7448 119.255 48.3125 116.641 48.3125C114.797 48.3125 113.125 47.9844 111.625 47.3281C110.135 46.6615 109.01 45.7552 108.25 44.6094C107.5 43.4531 107.125 42.125 107.125 40.625H112.625C112.625 41.8438 112.938 42.7448 113.562 43.3281C114.198 43.901 115.224 44.1875 116.641 44.1875C117.547 44.1875 118.26 43.9948 118.781 43.6094C119.312 43.2135 119.578 42.6615 119.578 41.9531ZM127.875 48V25.25H136.047C138.974 25.25 141.198 25.7865 142.719 26.8594C144.25 27.9323 145.016 29.4896 145.016 31.5312C145.016 32.7083 144.745 33.7135 144.203 34.5469C143.661 35.3802 142.865 35.9948 141.812 36.3906C143 36.7031 143.911 37.2865 144.547 38.1406C145.182 38.9948 145.5 40.0365 145.5 41.2656C145.5 43.4948 144.792 45.1719 143.375 46.2969C141.969 47.4115 139.88 47.9792 137.109 48H127.875ZM133.359 38.3281V43.7812H136.953C137.943 43.7812 138.703 43.5573 139.234 43.1094C139.766 42.651 140.031 42.0104 140.031 41.1875C140.031 39.2917 139.089 38.3385 137.203 38.3281H133.359ZM133.359 34.7344H136.219C137.417 34.724 138.271 34.5052 138.781 34.0781C139.292 33.651 139.547 33.0208 139.547 32.1875C139.547 31.2292 139.271 30.5417 138.719 30.125C138.167 29.6979 137.276 29.4844 136.047 29.4844H133.359V34.7344Z" fill="#EC8B33"/>
<path d="M31.1503 67.0563L0.00187879 49.0727L17.9488 38.6688L49.0972 56.6524L31.1503 67.0563Z" fill="#F2AE71"/>
<path d="M67.0312 31.0212L67.0312 66.9883L49.0477 56.6478L49.0477 20.6807L67.0312 31.0212Z" fill="#EC8B33"/>
<path d="M17.9903 17.984L49.1387 0.000477999L49.1753 20.745L18.0269 38.7285L17.9903 17.984Z" fill="#CA782E"/>
</svg>
