<svg width="16" height="16" viewBox="0 0 16 16" fill="none" xmlns="http://www.w3.org/2000/svg">
<g clip-path="url(#clip0)">
<path d="M8.00338 6.45942L2.01756 12.445C1.85314 12.6098 1.6333 12.7005 1.39889 12.7005C1.16436 12.7005 0.94465 12.6098 0.779967 12.445L0.255739 11.9205C0.0907964 11.7559 -3.59972e-07 11.536 -3.49725e-07 11.3016C-3.39479e-07 11.0672 0.0907964 10.8475 0.255739 10.6828L7.38237 3.556C7.54758 3.39067 7.76832 3.30013 8.00299 3.30079C8.2387 3.30013 8.45919 3.39054 8.62452 3.556L15.7443 10.6761C15.9092 10.8408 16 11.0605 16 11.2951C16 11.5295 15.9092 11.7492 15.7443 11.914L15.22 12.4383C14.8788 12.7795 14.3234 12.7795 13.9823 12.4383L8.00338 6.45942Z" fill="#010101"/>
</g>
<defs>
<clipPath id="clip0">
<rect width="16" height="16" fill="white" transform="matrix(-4.37114e-08 1 1 4.37114e-08 0 0)"/>
</clipPath>
</defs>
</svg>
