<svg width="16" height="16" viewBox="0 0 16 16" fill="none" xmlns="http://www.w3.org/2000/svg">
<circle cx="8" cy="8" r="8" fill="#010101"/>
<g clip-path="url(#clip0)">
<path d="M4.11396 4.6674C3.96396 4.5174 3.96396 4.26774 4.11396 4.1125C4.26921 3.9625 4.51362 3.9625 4.66886 4.1125L7.99858 7.44781L11.3339 4.1125C11.4839 3.9625 11.7335 3.9625 11.8832 4.1125C12.0384 4.26774 12.0384 4.51774 11.8832 4.6674L8.55348 7.99746L11.8832 11.3328C12.0384 11.4828 12.0384 11.7324 11.8832 11.8877C11.7332 12.0377 11.4835 12.0377 11.3339 11.8877L7.99858 8.55236L4.66886 11.8877C4.51362 12.0377 4.26921 12.0377 4.11396 11.8877C3.96396 11.7324 3.96396 11.4824 4.11396 11.3328L7.44369 7.99746L4.11396 4.6674Z" fill="white"/>
</g>
<defs>
<clipPath id="clip0">
<rect width="8" height="8" fill="white" transform="translate(4 4)"/>
</clipPath>
</defs>
</svg>
