<svg width="60" height="60" viewBox="0 0 60 60" fill="none" xmlns="http://www.w3.org/2000/svg">
<path d="M44.8312 27.3488C44.5275 26.6775 43.86 26.25 43.125 26.25H35.625V1.875C35.625 0.84 34.785 0 33.75 0H26.25C25.215 0 24.375 0.84 24.375 1.875V26.25H16.875C16.14 26.25 15.4725 26.6813 15.1687 27.3488C14.8612 28.02 14.9812 28.8037 15.465 29.3587L28.59 44.3588C28.9462 44.7675 29.46 45 30 45C30.54 45 31.0537 44.7638 31.41 44.3588L44.535 29.3587C45.0225 28.8075 45.135 28.02 44.8312 27.3488Z" fill="#010101"/>
<path d="M50.625 41.25V52.5H9.375V41.25H1.875V56.25C1.875 58.3237 3.555 60 5.625 60H54.375C56.4487 60 58.125 58.3237 58.125 56.25V41.25H50.625Z" fill="#010101"/>
</svg>
