<svg width="60" height="60" viewBox="0 0 60 60" fill="none" xmlns="http://www.w3.org/2000/svg">
<path d="M30 44.1797C35.2424 44.1797 39.4922 39.9299 39.4922 34.6875C39.4922 29.4451 35.2424 25.1953 30 25.1953C24.7576 25.1953 20.5078 29.4451 20.5078 34.6875C20.5078 39.9299 24.7576 44.1797 30 44.1797Z" fill="#4E4E4E"/>
<path d="M43.8629 10.6641L43.2563 7.6309C42.9288 5.99332 41.479 4.80469 39.809 4.80469H20.1911C18.5211 4.80469 17.0712 5.99332 16.7438 7.6309L16.1371 10.6641H43.8629Z" fill="#4E4E4E"/>
<path d="M54.7266 14.1797C50.5989 14.1797 7.20516 14.1797 5.27344 14.1797C2.36566 14.1797 0 16.5454 0 19.4531V49.9219C0 52.8296 2.36566 55.1953 5.27344 55.1953H54.7266C57.6343 55.1953 60 52.8296 60 49.9219V19.4531C60 16.5454 57.6343 14.1797 54.7266 14.1797ZM15 25.1953H9.375C8.40422 25.1953 7.61719 24.4083 7.61719 23.4375C7.61719 22.4667 8.40422 21.6797 9.375 21.6797H15C15.9708 21.6797 16.7578 22.4667 16.7578 23.4375C16.7578 24.4083 15.9708 25.1953 15 25.1953ZM30 47.6953C22.8274 47.6953 16.9922 41.8601 16.9922 34.6875C16.9922 27.5149 22.8274 21.6797 30 21.6797C37.1726 21.6797 43.0078 27.5149 43.0078 34.6875C43.0078 41.8601 37.1726 47.6953 30 47.6953Z" fill="#4E4E4E"/>
</svg>
